<?xml version="1.0" encoding="utf-8"?>
<!-- Generator: Adobe Illustrator 25.0.0, SVG Export Plug-In . SVG Version: 6.00 Build 0)  -->
<svg version="1.1" id="图层_1" xmlns="http://www.w3.org/2000/svg" xmlns:xlink="http://www.w3.org/1999/xlink" x="0px" y="0px"
	 viewBox="0 0 48 48" style="enable-background:new 0 0 48 48;" xml:space="preserve">
<style type="text/css">
	.st0{fill:#F3F5F7;}
	.st1{fill:#5EB855;}
	.st2{fill:none;}
	.st3{fill:#6DCF5F;}
	.st4{fill:#FFA76D;}
</style>
<g>
	<circle class="st0" cx="24" cy="24" r="23"/>
</g>
<g>
	<path class="st1" d="M38,24.1c-0.8-0.7-1.9-0.7-2.7,0L28.8,30l10.9,10.8c3.2-3,5-5.2,6.3-9.6L38,24.1z"/>
</g>
<g>
	<path class="st2" d="M18.4,18.6l11,11l6.1-5.5c0.8-0.7,1.9-0.7,2.7,0l7,6.3c0.6-2,1-4.2,1-6.4c0-12.1-9.9-22-22-22s-22,9.9-22,22
		c0,2.5,0.4,4.8,1.2,7l12.4-12.4C16.3,17.9,17.6,17.9,18.4,18.6z M32.1,11.3c2.1,0,3.8,1.7,3.8,3.8s-1.7,3.8-3.8,3.8
		s-3.8-1.7-3.8-3.8C28.2,13,30,11.3,32.1,11.3z"/>
</g>
<g>
	<path class="st3" d="M24,0C10.8,0,0,10.8,0,24s10.8,24,24,24s24-10.8,24-24S37.2,0,24,0z M39.4,39.7L29.3,29.6l-11-11
		c-0.8-0.8-2-0.8-2.8,0L3.2,31l0,0C2.5,28.8,2,26.4,2,24C2,11.9,11.9,2,24,2s22,9.9,22,22C46,30.1,43.5,35.7,39.4,39.7z"/>
</g>
<g>
	<path class="st4" d="M32.1,19c2.1,0,3.8-1.7,3.8-3.8s-1.7-3.8-3.8-3.8s-3.8,1.7-3.8,3.8C28.2,17.3,30,19,32.1,19z"/>
</g>
</svg>
