<?xml version="1.0" encoding="utf-8"?>
<!-- Generator: Adobe Illustrator 25.0.0, SVG Export Plug-In . SVG Version: 6.00 Build 0)  -->
<svg version="1.1" id="图层_1" xmlns="http://www.w3.org/2000/svg" xmlns:xlink="http://www.w3.org/1999/xlink" x="0px" y="0px"
	 viewBox="0 0 21 20" style="enable-background:new 0 0 21 20;" xml:space="preserve">
<style type="text/css">
	.st0{fill-rule:evenodd;clip-rule:evenodd;fill:#FFFFFF;}
</style>
<g>
	<path class="st0" d="M18.7,9.7L12.5,3c-0.3-0.3-0.9-0.1-0.9,0.3V7c0,0-7.1,2-8.4,8c0,0.2-0.1,0.4-0.1,0.7C3,16.1,3.6,16.3,3.9,16
		c0.1-0.1,0.3-0.3,0.4-0.4c2.4-2.1,4.7-2.8,6-3c0.5-0.1,0.8-0.1,1-0.1c0.1,0,0.2,0,0.2,0c0.1-1.2,0.1-1.2,0.1-1.2l0,0l0,0l0,0l0,0
		c0,0,0,0-0.1,0c0,0-0.1,0-0.2,0c-0.2,0-0.4,0-0.7,0c-0.6,0.1-1.3,0.2-2.2,0.5c-1,0.3-2.2,0.9-3.5,1.7c0.7-1.4,1.8-2.5,3-3.4
		c1-0.7,2-1.2,2.7-1.5c0.4-0.2,0.7-0.3,0.9-0.3c0.1,0,0.2-0.1,0.2-0.1c0,0,0,0,0.1,0l0,0l0.9-0.3V5.2l4.5,4.8l-4.5,4.8v-3.5
		l-1.2-0.1l-0.1,1.2v4.2c0,0.5,0.6,0.7,0.9,0.3l6.2-6.7C18.9,10.1,18.9,9.9,18.7,9.7z"/>
</g>
</svg>
